<svg xmlns="http://www.w3.org/2000/svg" xmlns:xlink="http://www.w3.org/1999/xlink" width="500" zoomAndPan="magnify" viewBox="0 0 375 299.999988" height="400" preserveAspectRatio="xMidYMid meet" version="1.0"><defs><g/></defs><g fill="#536944" fill-opacity="1"><g transform="translate(22.687506, 149.259026)"><g><path d="M 13.421875 2.328125 C 13.328125 3.398438 13.300781 4.472656 13.34375 5.546875 C 13.394531 6.617188 13.421875 7.738281 13.421875 8.90625 C 10.597656 9.488281 8.75 8.414062 7.875 5.6875 C 7.289062 3.738281 7.144531 1.648438 7.4375 -0.578125 C 7.632812 -2.523438 7.898438 -4.421875 8.234375 -6.265625 C 8.578125 -8.117188 8.894531 -10.019531 9.1875 -11.96875 C 9.476562 -13.613281 9.695312 -15.265625 9.84375 -16.921875 C 9.988281 -18.578125 10.160156 -20.234375 10.359375 -21.890625 C 10.554688 -23.054688 10.800781 -24.222656 11.09375 -25.390625 C 13.226562 -32.878906 15.34375 -40.367188 17.4375 -47.859375 C 19.53125 -55.347656 21.644531 -62.835938 23.78125 -70.328125 C 25.632812 -76.941406 27.507812 -83.53125 29.40625 -90.09375 C 31.300781 -96.664062 33.269531 -103.207031 35.3125 -109.71875 C 36.1875 -112.539062 37.226562 -115.335938 38.4375 -118.109375 C 39.65625 -120.878906 40.898438 -123.628906 42.171875 -126.359375 C 42.753906 -127.523438 43.503906 -128.566406 44.421875 -129.484375 C 45.347656 -130.410156 46.539062 -130.925781 48 -131.03125 C 48.582031 -131.03125 49.164062 -130.957031 49.75 -130.8125 C 50.332031 -130.664062 50.96875 -130.539062 51.65625 -130.4375 C 47.664062 -117.207031 43.675781 -103.976562 39.6875 -90.75 C 35.695312 -77.519531 31.613281 -64 27.4375 -50.1875 C 28.601562 -51.0625 29.5 -51.71875 30.125 -52.15625 C 30.757812 -52.59375 31.269531 -53.007812 31.65625 -53.40625 C 42.550781 -65.070312 53.46875 -76.71875 64.40625 -88.34375 C 75.351562 -99.96875 86.273438 -111.566406 97.171875 -123.140625 C 99.703125 -125.765625 102.28125 -128.289062 104.90625 -130.71875 C 107.53125 -133.15625 110.207031 -135.59375 112.9375 -138.03125 C 114.394531 -139.382812 116 -140.398438 117.75 -141.078125 C 119.5 -141.765625 121.394531 -141.867188 123.4375 -141.390625 C 124.113281 -141.285156 124.742188 -141.035156 125.328125 -140.640625 C 125.910156 -140.253906 126.492188 -139.914062 127.078125 -139.625 C 126.398438 -137.394531 125.5 -135.5 124.375 -133.9375 C 123.257812 -132.382812 121.535156 -131.316406 119.203125 -130.734375 C 118.421875 -130.535156 117.710938 -130.117188 117.078125 -129.484375 C 116.453125 -128.859375 115.847656 -128.253906 115.265625 -127.671875 C 102.234375 -114.148438 89.175781 -100.601562 76.09375 -87.03125 C 63.007812 -73.457031 49.953125 -59.910156 36.921875 -46.390625 C 36.035156 -45.515625 35.203125 -44.59375 34.421875 -43.625 C 33.648438 -42.65625 32.78125 -41.632812 31.8125 -40.5625 C 35.019531 -37.445312 37.5 -33.941406 39.25 -30.046875 C 41 -26.160156 42.75 -22.222656 44.5 -18.234375 C 49.457031 -6.953125 54.5625 4.28125 59.8125 15.46875 C 65.070312 26.65625 70.617188 37.695312 76.453125 48.59375 C 76.742188 49.269531 77.054688 49.992188 77.390625 50.765625 C 77.734375 51.546875 78.054688 52.328125 78.359375 53.109375 C 76.210938 53.984375 74.75 54.394531 73.96875 54.34375 C 73.195312 54.300781 72.320312 53.695312 71.34375 52.53125 C 70.664062 51.65625 70.007812 50.78125 69.375 49.90625 C 68.75 49.03125 68.140625 48.15625 67.546875 47.28125 C 62.984375 40.664062 58.753906 33.832031 54.859375 26.78125 C 50.972656 19.726562 47.273438 12.601562 43.765625 5.40625 C 41.335938 0.4375 38.929688 -4.550781 36.546875 -9.5625 C 34.160156 -14.570312 31.800781 -19.554688 29.46875 -24.515625 C 28.882812 -25.679688 28.300781 -26.867188 27.71875 -28.078125 C 27.132812 -29.296875 26.453125 -30.632812 25.671875 -32.09375 C 25.191406 -31.613281 24.679688 -31.226562 24.140625 -30.9375 C 23.609375 -30.644531 23.242188 -30.300781 23.046875 -29.90625 C 22.367188 -28.644531 21.710938 -27.359375 21.078125 -26.046875 C 20.453125 -24.734375 19.894531 -23.394531 19.40625 -22.03125 C 18.53125 -19.113281 17.726562 -16.144531 17 -13.125 C 16.269531 -10.113281 15.515625 -7.097656 14.734375 -4.078125 C 14.441406 -3.015625 14.171875 -1.945312 13.921875 -0.875 C 13.679688 0.195312 13.515625 1.265625 13.421875 2.328125 Z M 13.421875 2.328125 "/></g></g></g><g fill="#536944" fill-opacity="1"><g transform="translate(100.603546, 149.259026)"><g><path d="M 71.78125 -70.328125 C 71.59375 -70.523438 71.425781 -70.71875 71.28125 -70.90625 C 71.132812 -71.101562 70.960938 -71.300781 70.765625 -71.5 C 71.734375 -73.25 72.703125 -75 73.671875 -76.75 C 74.648438 -78.5 75.625 -80.25 76.59375 -82 C 78.15625 -84.625 79.785156 -87.25 81.484375 -89.875 C 83.191406 -92.5 84.722656 -95.222656 86.078125 -98.046875 C 87.242188 -100.285156 88.289062 -102.59375 89.21875 -104.96875 C 90.144531 -107.351562 91.046875 -109.765625 91.921875 -112.203125 C 92.304688 -113.273438 92.546875 -114.441406 92.640625 -115.703125 C 92.742188 -116.960938 92.796875 -118.175781 92.796875 -119.34375 C 92.597656 -122.363281 91.597656 -124.675781 89.796875 -126.28125 C 88.003906 -127.882812 85.648438 -128.585938 82.734375 -128.390625 C 81.171875 -128.296875 79.632812 -128.078125 78.125 -127.734375 C 76.625 -127.398438 75.144531 -126.988281 73.6875 -126.5 C 69.5 -125.238281 65.457031 -123.632812 61.5625 -121.6875 C 57.675781 -119.738281 53.9375 -117.550781 50.34375 -115.125 C 44.40625 -111.03125 38.660156 -106.648438 33.109375 -101.984375 C 27.566406 -97.316406 22.269531 -92.359375 17.21875 -87.109375 C 15.757812 -85.546875 14.347656 -83.890625 12.984375 -82.140625 C 11.617188 -80.390625 10.40625 -78.539062 9.34375 -76.59375 C 4.957031 -68.914062 6.269531 -62.445312 13.28125 -57.1875 C 15.414062 -55.632812 17.625 -54.175781 19.90625 -52.8125 C 22.195312 -51.457031 24.5625 -50.195312 27 -49.03125 C 30.789062 -47.269531 34.65625 -45.613281 38.59375 -44.0625 C 42.53125 -42.507812 46.445312 -40.90625 50.34375 -39.25 C 54.425781 -37.5 58.507812 -35.722656 62.59375 -33.921875 C 66.675781 -32.117188 70.664062 -30.25 74.5625 -28.3125 C 76.894531 -27.144531 79.128906 -25.851562 81.265625 -24.4375 C 83.410156 -23.03125 85.453125 -21.546875 87.390625 -19.984375 C 91.484375 -16.773438 94.207031 -12.984375 95.5625 -8.609375 C 96.925781 -4.234375 96.441406 0.726562 94.109375 6.28125 C 93.910156 6.757812 93.710938 7.265625 93.515625 7.796875 C 93.328125 8.335938 93.085938 8.945312 92.796875 9.625 C 93.472656 9.820312 94.078125 10.015625 94.609375 10.203125 C 95.148438 10.398438 95.8125 10.597656 96.59375 10.796875 C 94.445312 11.179688 92.644531 11.910156 91.1875 12.984375 C 89.726562 14.054688 88.367188 15.320312 87.109375 16.78125 C 79.421875 25.34375 70.757812 32.222656 61.125 37.421875 C 51.5 42.628906 41.046875 46.253906 29.765625 48.296875 C 27.816406 48.679688 25.820312 48.875 23.78125 48.875 C 21.738281 48.875 19.742188 48.78125 17.796875 48.59375 C 16.535156 48.488281 15.269531 48.164062 14 47.625 C 12.738281 47.09375 11.523438 46.535156 10.359375 45.953125 C 9.484375 45.472656 8.992188 44.769531 8.890625 43.84375 C 8.796875 42.914062 9.09375 42.113281 9.78125 41.4375 C 10.550781 40.46875 11.398438 39.566406 12.328125 38.734375 C 13.253906 37.910156 14.203125 37.207031 15.171875 36.625 C 16.828125 35.644531 18.503906 34.71875 20.203125 33.84375 C 21.910156 32.96875 23.585938 32.191406 25.234375 31.515625 C 33.316406 27.921875 41.488281 24.640625 49.75 21.671875 C 58.019531 18.703125 66.4375 16.195312 75 14.15625 C 77.039062 13.664062 78.691406 12.859375 79.953125 11.734375 C 81.222656 10.617188 82.296875 9.140625 83.171875 7.296875 C 85.015625 3.109375 85.570312 -0.925781 84.84375 -4.8125 C 84.113281 -8.707031 82.097656 -12.207031 78.796875 -15.3125 C 75.773438 -18.039062 72.46875 -20.28125 68.875 -22.03125 C 65.5625 -23.78125 62.175781 -25.429688 58.71875 -26.984375 C 55.269531 -28.546875 51.796875 -30.054688 48.296875 -31.515625 C 43.523438 -33.554688 38.707031 -35.523438 33.84375 -37.421875 C 28.988281 -39.316406 24.175781 -41.285156 19.40625 -43.328125 C 16.976562 -44.398438 14.570312 -45.546875 12.1875 -46.765625 C 9.800781 -47.984375 7.488281 -49.320312 5.25 -50.78125 C 3.59375 -51.84375 2.007812 -53.054688 0.5 -54.421875 C -1 -55.785156 -2.429688 -57.195312 -3.796875 -58.65625 C -7.390625 -62.738281 -8.265625 -67.3125 -6.421875 -72.375 C -5.835938 -74.019531 -5.15625 -75.644531 -4.375 -77.25 C -3.59375 -78.863281 -2.671875 -80.398438 -1.609375 -81.859375 C -0.335938 -83.609375 1.046875 -85.304688 2.546875 -86.953125 C 4.054688 -88.609375 5.640625 -90.21875 7.296875 -91.78125 C 17.609375 -101.5 28.550781 -110.15625 40.125 -117.75 C 44.988281 -120.957031 50.046875 -123.75 55.296875 -126.125 C 60.546875 -128.507812 65.992188 -130.382812 71.640625 -131.75 C 74.648438 -132.53125 77.640625 -132.992188 80.609375 -133.140625 C 83.578125 -133.285156 86.570312 -133.210938 89.59375 -132.921875 C 90.5625 -132.828125 91.4375 -132.679688 92.21875 -132.484375 C 97.375 -131.117188 100.972656 -128.707031 103.015625 -125.25 C 105.054688 -121.800781 105.347656 -117.5 103.890625 -112.34375 C 103.109375 -109.425781 102.0625 -106.601562 100.75 -103.875 C 99.4375 -101.15625 97.804688 -98.628906 95.859375 -96.296875 C 92.554688 -92.210938 89.128906 -88.175781 85.578125 -84.1875 C 82.023438 -80.195312 78.445312 -76.207031 74.84375 -72.21875 C 74.457031 -71.832031 73.972656 -71.492188 73.390625 -71.203125 C 72.804688 -70.910156 72.269531 -70.617188 71.78125 -70.328125 Z M 21.015625 43.328125 C 23.828125 43.816406 27.203125 43.695312 31.140625 42.96875 C 35.085938 42.238281 39.25 41.019531 43.625 39.3125 C 48 37.613281 52.273438 35.546875 56.453125 33.109375 C 60.640625 30.679688 64.4375 28.082031 67.84375 25.3125 C 71.25 22.539062 73.925781 19.695312 75.875 16.78125 C 75.09375 16.976562 74.429688 17.148438 73.890625 17.296875 C 73.359375 17.441406 72.851562 17.5625 72.375 17.65625 C 64.976562 20.082031 57.679688 22.800781 50.484375 25.8125 C 43.285156 28.832031 36.28125 32.144531 29.46875 35.75 C 28.207031 36.425781 26.96875 37.203125 25.75 38.078125 C 24.53125 38.953125 23.335938 39.78125 22.171875 40.5625 C 21.785156 40.851562 21.421875 41.21875 21.078125 41.65625 C 20.742188 42.09375 20.722656 42.648438 21.015625 43.328125 Z M 21.015625 43.328125 "/></g></g></g><g fill="#536944" fill-opacity="1"><g transform="translate(214.851232, 149.259026)"><g><path d="M 108.703125 -47.71875 C 108.597656 -47.226562 108.59375 -46.738281 108.6875 -46.25 C 108.789062 -45.757812 108.84375 -45.128906 108.84375 -44.359375 C 114 -45.035156 119.007812 -45.910156 123.875 -46.984375 C 128.738281 -48.054688 133.648438 -48.15625 138.609375 -47.28125 C 138.804688 -46.882812 138.976562 -46.539062 139.125 -46.25 C 139.269531 -45.957031 139.390625 -45.664062 139.484375 -45.375 C 139.578125 -45.082031 139.625 -44.765625 139.625 -44.421875 C 139.625 -44.085938 139.675781 -43.675781 139.78125 -43.1875 C 134.332031 -42.695312 128.976562 -41.75 123.71875 -40.34375 C 118.46875 -38.9375 113.117188 -37.5 107.671875 -36.03125 C 107.378906 -33.800781 107.0625 -31.59375 106.71875 -29.40625 C 106.382812 -27.21875 106.117188 -25.003906 105.921875 -22.765625 C 105.046875 -13.328125 104.195312 -3.84375 103.375 5.6875 C 102.550781 15.21875 101.796875 24.75 101.109375 34.28125 C 100.722656 38.851562 100.53125 43.425781 100.53125 48 C 100.53125 52.570312 100.867188 57.097656 101.546875 61.578125 C 101.648438 62.253906 101.75 62.90625 101.84375 63.53125 C 101.9375 64.164062 102.082031 64.875 102.28125 65.65625 C 103.15625 65.851562 104.003906 66.070312 104.828125 66.3125 C 105.660156 66.550781 106.5625 66.816406 107.53125 67.109375 C 106.65625 68.765625 105.609375 69.882812 104.390625 70.46875 C 103.179688 71.050781 101.75 71.296875 100.09375 71.203125 C 97.269531 71.003906 95.273438 69.445312 94.109375 66.53125 C 93.722656 65.5625 93.382812 64.539062 93.09375 63.46875 C 92.800781 62.394531 92.554688 61.273438 92.359375 60.109375 C 92.066406 57.578125 91.796875 55.046875 91.546875 52.515625 C 91.304688 49.992188 91.140625 47.46875 91.046875 44.9375 C 90.847656 36.082031 90.96875 27.28125 91.40625 18.53125 C 91.84375 9.78125 92.453125 1.023438 93.234375 -7.734375 C 93.523438 -10.648438 93.816406 -13.613281 94.109375 -16.625 C 94.398438 -19.644531 94.644531 -22.660156 94.84375 -25.671875 C 94.9375 -26.648438 94.957031 -27.625 94.90625 -28.59375 C 94.863281 -29.570312 94.84375 -30.691406 94.84375 -31.953125 C 93.96875 -31.753906 93.140625 -31.582031 92.359375 -31.4375 C 91.578125 -31.289062 90.847656 -31.070312 90.171875 -30.78125 C 83.265625 -28.351562 76.378906 -25.875 69.515625 -23.34375 C 62.660156 -20.8125 55.78125 -18.332031 48.875 -15.90625 C 45.863281 -14.832031 43.820312 -12.9375 42.75 -10.21875 C 40.320312 -3.894531 37.84375 2.398438 35.3125 8.671875 C 32.78125 14.953125 30.300781 21.253906 27.875 27.578125 C 27.382812 28.941406 26.992188 30.328125 26.703125 31.734375 C 26.410156 33.140625 26.019531 34.523438 25.53125 35.890625 C 25.4375 36.179688 25.171875 36.5 24.734375 36.84375 C 24.296875 37.1875 23.929688 37.359375 23.640625 37.359375 C 22.472656 37.160156 21.597656 36.671875 21.015625 35.890625 C 20.523438 35.015625 20.378906 33.945312 20.578125 32.6875 C 20.867188 30.644531 21.132812 28.625 21.375 26.625 C 21.613281 24.632812 22.023438 22.710938 22.609375 20.859375 C 23.773438 17.066406 25.015625 13.273438 26.328125 9.484375 C 27.648438 5.691406 28.941406 1.898438 30.203125 -1.890625 C 30.492188 -2.867188 30.832031 -3.84375 31.21875 -4.8125 C 31.613281 -5.789062 32.003906 -6.910156 32.390625 -8.171875 C 31.710938 -8.078125 31.101562 -8.03125 30.5625 -8.03125 C 30.03125 -8.03125 29.519531 -7.929688 29.03125 -7.734375 C 26.789062 -6.859375 24.53125 -5.984375 22.25 -5.109375 C 19.96875 -4.234375 17.707031 -3.359375 15.46875 -2.484375 C 14.007812 -1.992188 12.597656 -1.84375 11.234375 -2.03125 C 9.867188 -2.226562 8.554688 -2.863281 7.296875 -3.9375 C 7.097656 -4.914062 7.265625 -5.695312 7.796875 -6.28125 C 8.335938 -6.863281 8.945312 -7.300781 9.625 -7.59375 C 11.769531 -8.851562 13.882812 -10.085938 15.96875 -11.296875 C 18.0625 -12.515625 20.226562 -13.707031 22.46875 -14.875 C 24.414062 -15.851562 26.410156 -16.800781 28.453125 -17.71875 C 30.492188 -18.644531 32.535156 -19.5 34.578125 -20.28125 C 36.035156 -20.863281 37.226562 -21.640625 38.15625 -22.609375 C 39.082031 -23.585938 39.835938 -24.757812 40.421875 -26.125 C 42.941406 -31.5625 45.515625 -37.003906 48.140625 -42.453125 C 50.773438 -47.898438 53.351562 -53.300781 55.875 -58.65625 C 61.8125 -70.90625 68.398438 -82.769531 75.640625 -94.25 C 82.890625 -105.726562 90.75 -116.769531 99.21875 -127.375 C 100.382812 -128.925781 101.644531 -130.457031 103 -131.96875 C 104.363281 -133.476562 105.726562 -134.914062 107.09375 -136.28125 C 109.132812 -138.414062 111.566406 -139.382812 114.390625 -139.1875 C 117.597656 -139.09375 119.203125 -137.441406 119.203125 -134.234375 C 119.203125 -131.210938 119.054688 -128.34375 118.765625 -125.625 C 117.796875 -118.71875 116.820312 -111.785156 115.84375 -104.828125 C 114.875 -97.878906 113.953125 -90.953125 113.078125 -84.046875 C 112.296875 -78.015625 111.539062 -71.957031 110.8125 -65.875 C 110.082031 -59.789062 109.378906 -53.738281 108.703125 -47.71875 Z M 109.28125 -126.640625 C 106.851562 -124.210938 103.882812 -120.515625 100.375 -115.546875 C 96.875 -110.585938 93.101562 -104.898438 89.0625 -98.484375 C 85.03125 -92.066406 80.992188 -85.351562 76.953125 -78.34375 C 72.921875 -71.34375 69.15625 -64.5625 65.65625 -58 C 62.15625 -51.4375 59.1875 -45.503906 56.75 -40.203125 C 54.320312 -34.898438 52.71875 -30.738281 51.9375 -27.71875 C 55.738281 -28.988281 59.484375 -30.207031 63.171875 -31.375 C 66.867188 -32.539062 70.566406 -33.65625 74.265625 -34.71875 C 77.960938 -35.882812 81.679688 -36.953125 85.421875 -37.921875 C 89.171875 -38.898438 92.894531 -40.023438 96.59375 -41.296875 C 97.070312 -44.984375 97.53125 -48.601562 97.96875 -52.15625 C 98.40625 -55.707031 98.867188 -59.285156 99.359375 -62.890625 C 99.847656 -66.390625 100.359375 -69.890625 100.890625 -73.390625 C 101.429688 -76.890625 101.941406 -80.390625 102.421875 -83.890625 C 103.003906 -87.492188 103.585938 -91.117188 104.171875 -94.765625 C 104.753906 -98.410156 105.335938 -102.035156 105.921875 -105.640625 C 106.410156 -109.046875 107.019531 -112.445312 107.75 -115.84375 C 108.476562 -119.25 108.988281 -122.847656 109.28125 -126.640625 Z M 109.28125 -126.640625 "/></g></g></g><g fill="#536944" fill-opacity="1"><g transform="translate(-0.777659, 255.474678)"><g><path d="M 3.359375 -23.71875 L 6.03125 -23.71875 L 6.03125 -9.546875 L 19.640625 -23.71875 L 23.140625 -23.71875 L 12.9375 -13.34375 L 23.546875 0 L 20.1875 0 L 11.078125 -11.484375 L 6.03125 -6.375 L 6.03125 0 L 3.359375 0 Z M 3.359375 -23.71875 "/></g></g></g><g fill="#536944" fill-opacity="1"><g transform="translate(26.723293, 255.474678)"><g><path d="M 3.359375 -23.71875 L 20.5 -23.71875 L 20.5 -21.28125 L 6.03125 -21.28125 L 6.03125 -13.171875 L 18.96875 -13.171875 L 18.96875 -10.734375 L 6.03125 -10.734375 L 6.03125 -2.4375 L 20.65625 -2.4375 L 20.65625 0 L 3.359375 0 Z M 3.359375 -23.71875 "/></g></g></g><g fill="#536944" fill-opacity="1"><g transform="translate(52.564759, 255.474678)"><g><path d="M 1.328125 -23.71875 L 4.296875 -23.71875 L 12.734375 -3.28125 L 21.203125 -23.71875 L 24.078125 -23.71875 L 13.890625 0.171875 L 11.515625 0.171875 Z M 1.328125 -23.71875 "/></g></g></g><g fill="#536944" fill-opacity="1"><g transform="translate(81.115603, 255.474678)"><g><path d="M 3.59375 -23.71875 L 6.265625 -23.71875 L 6.265625 0 L 3.59375 0 Z M 3.59375 -23.71875 "/></g></g></g><g fill="#536944" fill-opacity="1"><g transform="translate(94.121412, 255.474678)"><g><path d="M 3.359375 -23.71875 L 5.859375 -23.71875 L 20.796875 -4.703125 L 20.796875 -23.71875 L 23.40625 -23.71875 L 23.40625 0 L 21.28125 0 L 5.96875 -19.4375 L 5.96875 0 L 3.359375 0 Z M 3.359375 -23.71875 "/></g></g></g><g fill="#536944" fill-opacity="1"><g transform="translate(124.026939, 255.474678)"><g/></g></g><g fill="#536944" fill-opacity="1"><g transform="translate(137.33755, 255.474678)"><g><path d="M 11.484375 0.34375 C 9.585938 0.34375 7.851562 0.03125 6.28125 -0.59375 C 4.707031 -1.21875 3.210938 -2.171875 1.796875 -3.453125 L 3.453125 -5.421875 C 4.691406 -4.285156 5.941406 -3.441406 7.203125 -2.890625 C 8.472656 -2.335938 9.929688 -2.0625 11.578125 -2.0625 C 13.179688 -2.0625 14.460938 -2.441406 15.421875 -3.203125 C 16.390625 -3.960938 16.875 -4.925781 16.875 -6.09375 L 16.875 -6.171875 C 16.875 -6.710938 16.78125 -7.203125 16.59375 -7.640625 C 16.414062 -8.078125 16.097656 -8.476562 15.640625 -8.84375 C 15.191406 -9.207031 14.566406 -9.535156 13.765625 -9.828125 C 12.960938 -10.117188 11.941406 -10.398438 10.703125 -10.671875 C 9.347656 -10.960938 8.164062 -11.300781 7.15625 -11.6875 C 6.15625 -12.070312 5.328125 -12.535156 4.671875 -13.078125 C 4.015625 -13.617188 3.53125 -14.25 3.21875 -14.96875 C 2.90625 -15.695312 2.75 -16.546875 2.75 -17.515625 L 2.75 -17.578125 C 2.75 -18.503906 2.9375 -19.363281 3.3125 -20.15625 C 3.695312 -20.945312 4.238281 -21.628906 4.9375 -22.203125 C 5.644531 -22.773438 6.472656 -23.222656 7.421875 -23.546875 C 8.367188 -23.878906 9.40625 -24.046875 10.53125 -24.046875 C 12.269531 -24.046875 13.789062 -23.800781 15.09375 -23.3125 C 16.394531 -22.832031 17.65625 -22.109375 18.875 -21.140625 L 17.3125 -19.078125 C 16.207031 -19.972656 15.09375 -20.625 13.96875 -21.03125 C 12.851562 -21.4375 11.6875 -21.640625 10.46875 -21.640625 C 8.90625 -21.640625 7.671875 -21.269531 6.765625 -20.53125 C 5.867188 -19.800781 5.421875 -18.894531 5.421875 -17.8125 L 5.421875 -17.75 C 5.421875 -17.1875 5.507812 -16.679688 5.6875 -16.234375 C 5.875 -15.796875 6.203125 -15.390625 6.671875 -15.015625 C 7.148438 -14.648438 7.804688 -14.3125 8.640625 -14 C 9.472656 -13.695312 10.546875 -13.410156 11.859375 -13.140625 C 14.492188 -12.554688 16.4375 -11.742188 17.6875 -10.703125 C 18.945312 -9.660156 19.578125 -8.238281 19.578125 -6.4375 L 19.578125 -6.375 C 19.578125 -5.351562 19.375 -4.429688 18.96875 -3.609375 C 18.5625 -2.785156 18 -2.078125 17.28125 -1.484375 C 16.570312 -0.898438 15.722656 -0.445312 14.734375 -0.125 C 13.742188 0.1875 12.660156 0.34375 11.484375 0.34375 Z M 11.484375 0.34375 "/></g></g></g><g fill="#536944" fill-opacity="1"><g transform="translate(162.162998, 255.474678)"><g><path d="M 14.1875 0.40625 C 12.476562 0.40625 10.898438 0.09375 9.453125 -0.53125 C 8.003906 -1.164062 6.75 -2.03125 5.6875 -3.125 C 4.625 -4.226562 3.789062 -5.523438 3.1875 -7.015625 C 2.59375 -8.503906 2.296875 -10.09375 2.296875 -11.78125 L 2.296875 -11.859375 C 2.296875 -13.523438 2.59375 -15.101562 3.1875 -16.59375 C 3.789062 -18.082031 4.625 -19.382812 5.6875 -20.5 C 6.75 -21.625 8.015625 -22.507812 9.484375 -23.15625 C 10.953125 -23.800781 12.554688 -24.125 14.296875 -24.125 C 15.378906 -24.125 16.351562 -24.03125 17.21875 -23.84375 C 18.09375 -23.664062 18.898438 -23.410156 19.640625 -23.078125 C 20.390625 -22.753906 21.078125 -22.359375 21.703125 -21.890625 C 22.335938 -21.429688 22.953125 -20.921875 23.546875 -20.359375 L 21.71875 -18.390625 C 20.695312 -19.335938 19.601562 -20.113281 18.4375 -20.71875 C 17.28125 -21.332031 15.890625 -21.640625 14.265625 -21.640625 C 12.953125 -21.640625 11.734375 -21.390625 10.609375 -20.890625 C 9.492188 -20.398438 8.523438 -19.710938 7.703125 -18.828125 C 6.878906 -17.953125 6.234375 -16.921875 5.765625 -15.734375 C 5.304688 -14.546875 5.078125 -13.273438 5.078125 -11.921875 L 5.078125 -11.859375 C 5.078125 -10.484375 5.304688 -9.203125 5.765625 -8.015625 C 6.234375 -6.828125 6.878906 -5.789062 7.703125 -4.90625 C 8.523438 -4.03125 9.492188 -3.335938 10.609375 -2.828125 C 11.734375 -2.316406 12.953125 -2.0625 14.265625 -2.0625 C 15.890625 -2.0625 17.285156 -2.359375 18.453125 -2.953125 C 19.628906 -3.554688 20.785156 -4.398438 21.921875 -5.484375 L 23.671875 -3.765625 C 23.066406 -3.128906 22.429688 -2.554688 21.765625 -2.046875 C 21.097656 -1.535156 20.378906 -1.097656 19.609375 -0.734375 C 18.847656 -0.378906 18.023438 -0.101562 17.140625 0.09375 C 16.253906 0.300781 15.269531 0.40625 14.1875 0.40625 Z M 14.1875 0.40625 "/></g></g></g><g fill="#536944" fill-opacity="1"><g transform="translate(190.442903, 255.474678)"><g><path d="M 3.359375 -23.71875 L 6.03125 -23.71875 L 6.03125 -13.171875 L 19.71875 -13.171875 L 19.71875 -23.71875 L 22.390625 -23.71875 L 22.390625 0 L 19.71875 0 L 19.71875 -10.671875 L 6.03125 -10.671875 L 6.03125 0 L 3.359375 0 Z M 3.359375 -23.71875 "/></g></g></g><g fill="#536944" fill-opacity="1"><g transform="translate(219.332401, 255.474678)"><g><path d="M 1.53125 -23.71875 L 4.4375 -23.71875 L 11.21875 -3.96875 L 17.71875 -23.78125 L 19.921875 -23.78125 L 26.421875 -3.96875 L 33.203125 -23.71875 L 36.015625 -23.71875 L 27.546875 0.171875 L 25.265625 0.171875 L 18.765625 -19.078125 L 12.234375 0.171875 L 10 0.171875 Z M 1.53125 -23.71875 "/></g></g></g><g fill="#536944" fill-opacity="1"><g transform="translate(259.973846, 255.474678)"><g><path d="M 3.359375 -23.71875 L 20.5 -23.71875 L 20.5 -21.28125 L 6.03125 -21.28125 L 6.03125 -13.171875 L 18.96875 -13.171875 L 18.96875 -10.734375 L 6.03125 -10.734375 L 6.03125 -2.4375 L 20.65625 -2.4375 L 20.65625 0 L 3.359375 0 Z M 3.359375 -23.71875 "/></g></g></g><g fill="#536944" fill-opacity="1"><g transform="translate(285.81529, 255.474678)"><g><path d="M 3.59375 -23.71875 L 6.265625 -23.71875 L 6.265625 0 L 3.59375 0 Z M 3.59375 -23.71875 "/></g></g></g><g fill="#536944" fill-opacity="1"><g transform="translate(298.82111, 255.474678)"><g><path d="M 2.265625 -1.796875 L 17.609375 -21.3125 L 2.78125 -21.3125 L 2.78125 -23.71875 L 21.28125 -23.71875 L 21.28125 -21.921875 L 5.890625 -2.40625 L 21.28125 -2.40625 L 21.28125 0 L 2.265625 0 Z M 2.265625 -1.796875 "/></g></g></g><g fill="#536944" fill-opacity="1"><g transform="translate(325.441508, 255.474678)"><g><path d="M 3.359375 -23.71875 L 20.5 -23.71875 L 20.5 -21.28125 L 6.03125 -21.28125 L 6.03125 -13.171875 L 18.96875 -13.171875 L 18.96875 -10.734375 L 6.03125 -10.734375 L 6.03125 -2.4375 L 20.65625 -2.4375 L 20.65625 0 L 3.359375 0 Z M 3.359375 -23.71875 "/></g></g></g><g fill="#536944" fill-opacity="1"><g transform="translate(351.282997, 255.474678)"><g><path d="M 3.359375 -23.71875 L 13.546875 -23.71875 C 15.015625 -23.71875 16.316406 -23.503906 17.453125 -23.078125 C 18.597656 -22.660156 19.546875 -22.082031 20.296875 -21.34375 C 20.878906 -20.75 21.328125 -20.054688 21.640625 -19.265625 C 21.960938 -18.484375 22.125 -17.617188 22.125 -16.671875 L 22.125 -16.59375 C 22.125 -15.601562 21.960938 -14.71875 21.640625 -13.9375 C 21.328125 -13.15625 20.878906 -12.476562 20.296875 -11.90625 C 19.722656 -11.332031 19.039062 -10.859375 18.25 -10.484375 C 17.46875 -10.109375 16.613281 -9.84375 15.6875 -9.6875 L 22.96875 0 L 19.6875 0 L 12.8125 -9.21875 L 6.03125 -9.21875 L 6.03125 0 L 3.359375 0 Z M 13.3125 -11.625 C 14.195312 -11.625 15.007812 -11.734375 15.75 -11.953125 C 16.5 -12.179688 17.144531 -12.503906 17.6875 -12.921875 C 18.226562 -13.335938 18.648438 -13.84375 18.953125 -14.4375 C 19.253906 -15.039062 19.40625 -15.726562 19.40625 -16.5 L 19.40625 -16.5625 C 19.40625 -18.03125 18.875 -19.175781 17.8125 -20 C 16.75 -20.820312 15.257812 -21.234375 13.34375 -21.234375 L 6.03125 -21.234375 L 6.03125 -11.625 Z M 13.3125 -11.625 "/></g></g></g><g fill="#536944" fill-opacity="1"><g transform="translate(-0.156599, 299.241655)"><g><path d="M 12.125 -23.875 L 14.640625 -23.875 L 25.4375 0 L 22.5625 0 L 19.78125 -6.265625 L 6.875 -6.265625 L 4.0625 0 L 1.328125 0 Z M 18.734375 -8.671875 L 13.34375 -20.765625 L 7.921875 -8.671875 Z M 18.734375 -8.671875 "/></g></g></g><g fill="#536944" fill-opacity="1"><g transform="translate(48.109679, 299.241655)"><g><path d="M 3.359375 -23.71875 L 13.546875 -23.71875 C 15.015625 -23.71875 16.316406 -23.503906 17.453125 -23.078125 C 18.597656 -22.660156 19.546875 -22.082031 20.296875 -21.34375 C 20.878906 -20.75 21.328125 -20.054688 21.640625 -19.265625 C 21.960938 -18.484375 22.125 -17.617188 22.125 -16.671875 L 22.125 -16.59375 C 22.125 -15.601562 21.960938 -14.71875 21.640625 -13.9375 C 21.328125 -13.15625 20.878906 -12.476562 20.296875 -11.90625 C 19.722656 -11.332031 19.039062 -10.859375 18.25 -10.484375 C 17.46875 -10.109375 16.613281 -9.84375 15.6875 -9.6875 L 22.96875 0 L 19.6875 0 L 12.8125 -9.21875 L 6.03125 -9.21875 L 6.03125 0 L 3.359375 0 Z M 13.3125 -11.625 C 14.195312 -11.625 15.007812 -11.734375 15.75 -11.953125 C 16.5 -12.179688 17.144531 -12.503906 17.6875 -12.921875 C 18.226562 -13.335938 18.648438 -13.84375 18.953125 -14.4375 C 19.253906 -15.039062 19.40625 -15.726562 19.40625 -16.5 L 19.40625 -16.5625 C 19.40625 -18.03125 18.875 -19.175781 17.8125 -20 C 16.75 -20.820312 15.257812 -21.234375 13.34375 -21.234375 L 6.03125 -21.234375 L 6.03125 -11.625 Z M 13.3125 -11.625 "/></g></g></g><g fill="#536944" fill-opacity="1"><g transform="translate(94.106856, 299.241655)"><g><path d="M 14.1875 0.40625 C 12.476562 0.40625 10.898438 0.09375 9.453125 -0.53125 C 8.003906 -1.164062 6.75 -2.03125 5.6875 -3.125 C 4.625 -4.226562 3.789062 -5.523438 3.1875 -7.015625 C 2.59375 -8.503906 2.296875 -10.09375 2.296875 -11.78125 L 2.296875 -11.859375 C 2.296875 -13.523438 2.59375 -15.101562 3.1875 -16.59375 C 3.789062 -18.082031 4.625 -19.382812 5.6875 -20.5 C 6.75 -21.625 8.015625 -22.507812 9.484375 -23.15625 C 10.953125 -23.800781 12.554688 -24.125 14.296875 -24.125 C 15.378906 -24.125 16.351562 -24.03125 17.21875 -23.84375 C 18.09375 -23.664062 18.898438 -23.410156 19.640625 -23.078125 C 20.390625 -22.753906 21.078125 -22.359375 21.703125 -21.890625 C 22.335938 -21.429688 22.953125 -20.921875 23.546875 -20.359375 L 21.71875 -18.390625 C 20.695312 -19.335938 19.601562 -20.113281 18.4375 -20.71875 C 17.28125 -21.332031 15.890625 -21.640625 14.265625 -21.640625 C 12.953125 -21.640625 11.734375 -21.390625 10.609375 -20.890625 C 9.492188 -20.398438 8.523438 -19.710938 7.703125 -18.828125 C 6.878906 -17.953125 6.234375 -16.921875 5.765625 -15.734375 C 5.304688 -14.546875 5.078125 -13.273438 5.078125 -11.921875 L 5.078125 -11.859375 C 5.078125 -10.484375 5.304688 -9.203125 5.765625 -8.015625 C 6.234375 -6.828125 6.878906 -5.789062 7.703125 -4.90625 C 8.523438 -4.03125 9.492188 -3.335938 10.609375 -2.828125 C 11.734375 -2.316406 12.953125 -2.0625 14.265625 -2.0625 C 15.890625 -2.0625 17.285156 -2.359375 18.453125 -2.953125 C 19.628906 -3.554688 20.785156 -4.398438 21.921875 -5.484375 L 23.671875 -3.765625 C 23.066406 -3.128906 22.429688 -2.554688 21.765625 -2.046875 C 21.097656 -1.535156 20.378906 -1.097656 19.609375 -0.734375 C 18.847656 -0.378906 18.023438 -0.101562 17.140625 0.09375 C 16.253906 0.300781 15.269531 0.40625 14.1875 0.40625 Z M 14.1875 0.40625 "/></g></g></g><g fill="#536944" fill-opacity="1"><g transform="translate(140.747512, 299.241655)"><g><path d="M 3.359375 -23.71875 L 6.03125 -23.71875 L 6.03125 -13.171875 L 19.71875 -13.171875 L 19.71875 -23.71875 L 22.390625 -23.71875 L 22.390625 0 L 19.71875 0 L 19.71875 -10.671875 L 6.03125 -10.671875 L 6.03125 0 L 3.359375 0 Z M 3.359375 -23.71875 "/></g></g></g><g fill="#536944" fill-opacity="1"><g transform="translate(187.997771, 299.241655)"><g><path d="M 3.59375 -23.71875 L 6.265625 -23.71875 L 6.265625 0 L 3.59375 0 Z M 3.59375 -23.71875 "/></g></g></g><g fill="#536944" fill-opacity="1"><g transform="translate(219.364319, 299.241655)"><g><path d="M 9.515625 -21.234375 L 1.53125 -21.234375 L 1.53125 -23.71875 L 20.1875 -23.71875 L 20.1875 -21.234375 L 12.1875 -21.234375 L 12.1875 0 L 9.515625 0 Z M 9.515625 -21.234375 "/></g></g></g><g fill="#536944" fill-opacity="1"><g transform="translate(262.584393, 299.241655)"><g><path d="M 3.359375 -23.71875 L 20.5 -23.71875 L 20.5 -21.28125 L 6.03125 -21.28125 L 6.03125 -13.171875 L 18.96875 -13.171875 L 18.96875 -10.734375 L 6.03125 -10.734375 L 6.03125 -2.4375 L 20.65625 -2.4375 L 20.65625 0 L 3.359375 0 Z M 3.359375 -23.71875 "/></g></g></g><g fill="#536944" fill-opacity="1"><g transform="translate(306.786599, 299.241655)"><g><path d="M 14.1875 0.40625 C 12.476562 0.40625 10.898438 0.09375 9.453125 -0.53125 C 8.003906 -1.164062 6.75 -2.03125 5.6875 -3.125 C 4.625 -4.226562 3.789062 -5.523438 3.1875 -7.015625 C 2.59375 -8.503906 2.296875 -10.09375 2.296875 -11.78125 L 2.296875 -11.859375 C 2.296875 -13.523438 2.59375 -15.101562 3.1875 -16.59375 C 3.789062 -18.082031 4.625 -19.382812 5.6875 -20.5 C 6.75 -21.625 8.015625 -22.507812 9.484375 -23.15625 C 10.953125 -23.800781 12.554688 -24.125 14.296875 -24.125 C 15.378906 -24.125 16.351562 -24.03125 17.21875 -23.84375 C 18.09375 -23.664062 18.898438 -23.410156 19.640625 -23.078125 C 20.390625 -22.753906 21.078125 -22.359375 21.703125 -21.890625 C 22.335938 -21.429688 22.953125 -20.921875 23.546875 -20.359375 L 21.71875 -18.390625 C 20.695312 -19.335938 19.601562 -20.113281 18.4375 -20.71875 C 17.28125 -21.332031 15.890625 -21.640625 14.265625 -21.640625 C 12.953125 -21.640625 11.734375 -21.390625 10.609375 -20.890625 C 9.492188 -20.398438 8.523438 -19.710938 7.703125 -18.828125 C 6.878906 -17.953125 6.234375 -16.921875 5.765625 -15.734375 C 5.304688 -14.546875 5.078125 -13.273438 5.078125 -11.921875 L 5.078125 -11.859375 C 5.078125 -10.484375 5.304688 -9.203125 5.765625 -8.015625 C 6.234375 -6.828125 6.878906 -5.789062 7.703125 -4.90625 C 8.523438 -4.03125 9.492188 -3.335938 10.609375 -2.828125 C 11.734375 -2.316406 12.953125 -2.0625 14.265625 -2.0625 C 15.890625 -2.0625 17.285156 -2.359375 18.453125 -2.953125 C 19.628906 -3.554688 20.785156 -4.398438 21.921875 -5.484375 L 23.671875 -3.765625 C 23.066406 -3.128906 22.429688 -2.554688 21.765625 -2.046875 C 21.097656 -1.535156 20.378906 -1.097656 19.609375 -0.734375 C 18.847656 -0.378906 18.023438 -0.101562 17.140625 0.09375 C 16.253906 0.300781 15.269531 0.40625 14.1875 0.40625 Z M 14.1875 0.40625 "/></g></g></g><g fill="#536944" fill-opacity="1"><g transform="translate(353.427266, 299.241655)"><g><path d="M 9.515625 -21.234375 L 1.53125 -21.234375 L 1.53125 -23.71875 L 20.1875 -23.71875 L 20.1875 -21.234375 L 12.1875 -21.234375 L 12.1875 0 L 9.515625 0 Z M 9.515625 -21.234375 "/></g></g></g></svg>